<mxfile host="65bd71144e">
    <diagram id="S0TDfgUUGKyXLeQjrpMA" name="Page-1">
        <mxGraphModel dx="1155" dy="594" grid="1" gridSize="10" guides="1" tooltips="1" connect="1" arrows="1" fold="1" page="1" pageScale="1" pageWidth="1169" pageHeight="827" background="#E6E6E6" math="0" shadow="0">
            <root>
                <mxCell id="0"/>
                <mxCell id="1" parent="0"/>
                <mxCell id="2" value="MCD : Modèle conceptuel de données" style="text;html=1;strokeColor=none;fillColor=none;align=center;verticalAlign=middle;whiteSpace=wrap;rounded=0;fontColor=#000000;fontSize=20;" parent="1" vertex="1">
                    <mxGeometry x="80" y="10" width="1000" height="40" as="geometry"/>
                </mxCell>
                <mxCell id="8" value="Agent" style="swimlane;fontStyle=0;childLayout=stackLayout;horizontal=1;startSize=26;fillColor=#647687;horizontalStack=0;resizeParent=1;resizeParentMax=0;resizeLast=0;collapsible=1;marginBottom=0;fontSize=11;fontColor=#ffffff;strokeColor=#314354;" parent="1" vertex="1">
                    <mxGeometry x="40" y="50" width="140" height="210" as="geometry"/>
                </mxCell>
                <mxCell id="9" value="id_agent" style="text;strokeColor=none;fillColor=none;align=left;verticalAlign=top;spacingLeft=4;spacingRight=4;overflow=hidden;rotatable=0;points=[[0,0.5],[1,0.5]];portConstraint=eastwest;fontSize=11;fontColor=#000000;" parent="8" vertex="1">
                    <mxGeometry y="26" width="140" height="26" as="geometry"/>
                </mxCell>
                <mxCell id="10" value="last_name" style="text;strokeColor=none;fillColor=none;align=left;verticalAlign=top;spacingLeft=4;spacingRight=4;overflow=hidden;rotatable=0;points=[[0,0.5],[1,0.5]];portConstraint=eastwest;fontSize=11;fontColor=#000000;" parent="8" vertex="1">
                    <mxGeometry y="52" width="140" height="26" as="geometry"/>
                </mxCell>
                <mxCell id="11" value="first_name&#10;&#10; date_of_birth&#10;&#10;identification_code&#10;&#10;nationality&#10;&#10;specialities" style="text;strokeColor=none;fillColor=none;align=left;verticalAlign=top;spacingLeft=4;spacingRight=4;overflow=hidden;rotatable=0;points=[[0,0.5],[1,0.5]];portConstraint=eastwest;fontSize=11;fontColor=#000000;" parent="8" vertex="1">
                    <mxGeometry y="78" width="140" height="132" as="geometry"/>
                </mxCell>
                <mxCell id="12" value="Targets" style="swimlane;fontStyle=0;childLayout=stackLayout;horizontal=1;startSize=26;fillColor=#647687;horizontalStack=0;resizeParent=1;resizeParentMax=0;resizeLast=0;collapsible=1;marginBottom=0;fontSize=11;fontColor=#ffffff;strokeColor=#314354;" parent="1" vertex="1">
                    <mxGeometry x="240" y="160" width="140" height="180" as="geometry"/>
                </mxCell>
                <mxCell id="13" value="id_target" style="text;strokeColor=none;fillColor=none;align=left;verticalAlign=top;spacingLeft=4;spacingRight=4;overflow=hidden;rotatable=0;points=[[0,0.5],[1,0.5]];portConstraint=eastwest;fontSize=11;fontColor=#000000;" parent="12" vertex="1">
                    <mxGeometry y="26" width="140" height="26" as="geometry"/>
                </mxCell>
                <mxCell id="14" value="last_name" style="text;strokeColor=none;fillColor=none;align=left;verticalAlign=top;spacingLeft=4;spacingRight=4;overflow=hidden;rotatable=0;points=[[0,0.5],[1,0.5]];portConstraint=eastwest;fontSize=11;fontColor=#000000;" parent="12" vertex="1">
                    <mxGeometry y="52" width="140" height="26" as="geometry"/>
                </mxCell>
                <mxCell id="15" value="first_name&#10;&#10; date_of_birth&#10;&#10;code_name_target&#10;&#10;nationality&#10;" style="text;strokeColor=none;fillColor=none;align=left;verticalAlign=top;spacingLeft=4;spacingRight=4;overflow=hidden;rotatable=0;points=[[0,0.5],[1,0.5]];portConstraint=eastwest;fontSize=11;fontColor=#000000;" parent="12" vertex="1">
                    <mxGeometry y="78" width="140" height="102" as="geometry"/>
                </mxCell>
                <mxCell id="16" value="Contact" style="swimlane;fontStyle=0;childLayout=stackLayout;horizontal=1;startSize=26;fillColor=#647687;horizontalStack=0;resizeParent=1;resizeParentMax=0;resizeLast=0;collapsible=1;marginBottom=0;fontSize=11;fontColor=#ffffff;strokeColor=#314354;" parent="1" vertex="1">
                    <mxGeometry x="70" y="340" width="140" height="180" as="geometry"/>
                </mxCell>
                <mxCell id="17" value="id_contact" style="text;strokeColor=none;fillColor=none;align=left;verticalAlign=top;spacingLeft=4;spacingRight=4;overflow=hidden;rotatable=0;points=[[0,0.5],[1,0.5]];portConstraint=eastwest;fontSize=11;fontColor=#000000;" parent="16" vertex="1">
                    <mxGeometry y="26" width="140" height="26" as="geometry"/>
                </mxCell>
                <mxCell id="18" value="last_name" style="text;strokeColor=none;fillColor=none;align=left;verticalAlign=top;spacingLeft=4;spacingRight=4;overflow=hidden;rotatable=0;points=[[0,0.5],[1,0.5]];portConstraint=eastwest;fontSize=11;fontColor=#000000;" parent="16" vertex="1">
                    <mxGeometry y="52" width="140" height="26" as="geometry"/>
                </mxCell>
                <mxCell id="19" value="first_name&#10;&#10; date_of_birth&#10;&#10;code_name_contact&#10;&#10;nationality&#10;&#10;" style="text;strokeColor=none;fillColor=none;align=left;verticalAlign=top;spacingLeft=4;spacingRight=4;overflow=hidden;rotatable=0;points=[[0,0.5],[1,0.5]];portConstraint=eastwest;fontSize=11;fontColor=#000000;" parent="16" vertex="1">
                    <mxGeometry y="78" width="140" height="102" as="geometry"/>
                </mxCell>
                <mxCell id="20" value="Hideout" style="swimlane;fontStyle=0;childLayout=stackLayout;horizontal=1;startSize=26;fillColor=#647687;horizontalStack=0;resizeParent=1;resizeParentMax=0;resizeLast=0;collapsible=1;marginBottom=0;fontSize=11;fontColor=#ffffff;strokeColor=#314354;" parent="1" vertex="1">
                    <mxGeometry x="240" y="520" width="140" height="130" as="geometry"/>
                </mxCell>
                <mxCell id="21" value="id_hideout" style="text;strokeColor=none;fillColor=none;align=left;verticalAlign=top;spacingLeft=4;spacingRight=4;overflow=hidden;rotatable=0;points=[[0,0.5],[1,0.5]];portConstraint=eastwest;fontSize=11;fontColor=#000000;" parent="20" vertex="1">
                    <mxGeometry y="26" width="140" height="26" as="geometry"/>
                </mxCell>
                <mxCell id="22" value="adress" style="text;strokeColor=none;fillColor=none;align=left;verticalAlign=top;spacingLeft=4;spacingRight=4;overflow=hidden;rotatable=0;points=[[0,0.5],[1,0.5]];portConstraint=eastwest;fontSize=11;fontColor=#000000;" parent="20" vertex="1">
                    <mxGeometry y="52" width="140" height="26" as="geometry"/>
                </mxCell>
                <mxCell id="23" value="country&#10;&#10;type" style="text;strokeColor=none;fillColor=none;align=left;verticalAlign=top;spacingLeft=4;spacingRight=4;overflow=hidden;rotatable=0;points=[[0,0.5],[1,0.5]];portConstraint=eastwest;fontSize=11;fontColor=#000000;" parent="20" vertex="1">
                    <mxGeometry y="78" width="140" height="52" as="geometry"/>
                </mxCell>
                <mxCell id="24" value="Missions" style="swimlane;fontStyle=0;childLayout=stackLayout;horizontal=1;startSize=26;fillColor=#647687;horizontalStack=0;resizeParent=1;resizeParentMax=0;resizeLast=0;collapsible=1;marginBottom=0;fontSize=11;fontColor=#ffffff;strokeColor=#314354;" parent="1" vertex="1">
                    <mxGeometry x="580" y="200" width="140" height="290" as="geometry"/>
                </mxCell>
                <mxCell id="25" value="id_missions" style="text;strokeColor=none;fillColor=none;align=left;verticalAlign=top;spacingLeft=4;spacingRight=4;overflow=hidden;rotatable=0;points=[[0,0.5],[1,0.5]];portConstraint=eastwest;fontSize=11;fontColor=#000000;" parent="24" vertex="1">
                    <mxGeometry y="26" width="140" height="26" as="geometry"/>
                </mxCell>
                <mxCell id="26" value="title" style="text;strokeColor=none;fillColor=none;align=left;verticalAlign=top;spacingLeft=4;spacingRight=4;overflow=hidden;rotatable=0;points=[[0,0.5],[1,0.5]];portConstraint=eastwest;fontSize=11;fontColor=#000000;" parent="24" vertex="1">
                    <mxGeometry y="52" width="140" height="26" as="geometry"/>
                </mxCell>
                <mxCell id="27" value="description&#10;&#10;name_code&#10;&#10;country&#10;&#10;type_of_mission&#10;&#10;number_of_hideout&#10;&#10;speciality&#10;&#10;start_date &#10;&#10;end_date&#10;&#10;&#10;&#10;" style="text;strokeColor=none;fillColor=none;align=left;verticalAlign=top;spacingLeft=4;spacingRight=4;overflow=hidden;rotatable=0;points=[[0,0.5],[1,0.5]];portConstraint=eastwest;fontSize=11;fontColor=#000000;" parent="24" vertex="1">
                    <mxGeometry y="78" width="140" height="212" as="geometry"/>
                </mxCell>
                <mxCell id="28" value="Administrator" style="swimlane;fontStyle=0;childLayout=stackLayout;horizontal=1;startSize=26;fillColor=#647687;horizontalStack=0;resizeParent=1;resizeParentMax=0;resizeLast=0;collapsible=1;marginBottom=0;fontSize=11;fontColor=#ffffff;strokeColor=#314354;" parent="1" vertex="1">
                    <mxGeometry x="880" y="280" width="140" height="190" as="geometry"/>
                </mxCell>
                <mxCell id="29" value="id_admin" style="text;strokeColor=none;fillColor=none;align=left;verticalAlign=top;spacingLeft=4;spacingRight=4;overflow=hidden;rotatable=0;points=[[0,0.5],[1,0.5]];portConstraint=eastwest;fontSize=11;fontColor=#000000;" parent="28" vertex="1">
                    <mxGeometry y="26" width="140" height="26" as="geometry"/>
                </mxCell>
                <mxCell id="30" value="last_name" style="text;strokeColor=none;fillColor=none;align=left;verticalAlign=top;spacingLeft=4;spacingRight=4;overflow=hidden;rotatable=0;points=[[0,0.5],[1,0.5]];portConstraint=eastwest;fontSize=11;fontColor=#000000;" parent="28" vertex="1">
                    <mxGeometry y="52" width="140" height="26" as="geometry"/>
                </mxCell>
                <mxCell id="31" value="first_name&#10;&#10; mail&#10;&#10;password&#10;&#10;creation_date&#10;&#10;" style="text;strokeColor=none;fillColor=none;align=left;verticalAlign=top;spacingLeft=4;spacingRight=4;overflow=hidden;rotatable=0;points=[[0,0.5],[1,0.5]];portConstraint=eastwest;fontSize=11;fontColor=#000000;" parent="28" vertex="1">
                    <mxGeometry y="78" width="140" height="112" as="geometry"/>
                </mxCell>
                <mxCell id="33" value="" style="endArrow=none;html=1;edgeStyle=orthogonalEdgeStyle;labelBackgroundColor=#E6E6E6;strokeColor=#000000;fontSize=11;fontColor=#000000;exitX=1.014;exitY=0.504;exitDx=0;exitDy=0;exitPerimeter=0;entryX=-0.029;entryY=0.375;entryDx=0;entryDy=0;entryPerimeter=0;" parent="1" source="27" target="31" edge="1">
                    <mxGeometry relative="1" as="geometry">
                        <mxPoint x="550" y="400" as="sourcePoint"/>
                        <mxPoint x="710" y="400" as="targetPoint"/>
                    </mxGeometry>
                </mxCell>
                <mxCell id="34" value="1" style="edgeLabel;resizable=0;html=1;align=left;verticalAlign=bottom;fontSize=11;fontColor=#000000;labelBackgroundColor=#E6E6E6;" parent="33" connectable="0" vertex="1">
                    <mxGeometry x="-1" relative="1" as="geometry"/>
                </mxCell>
                <mxCell id="35" value="0..*" style="edgeLabel;resizable=0;html=1;align=right;verticalAlign=bottom;fontSize=11;fontColor=#000000;labelBackgroundColor=#E6E6E6;" parent="33" connectable="0" vertex="1">
                    <mxGeometry x="1" relative="1" as="geometry"/>
                </mxCell>
                <mxCell id="36" value="créer" style="edgeLabel;html=1;align=center;verticalAlign=middle;resizable=0;points=[];fontSize=15;fontColor=#000000;labelBackgroundColor=#3399FF;labelBorderColor=none;spacingTop=0;spacing=0;" parent="33" vertex="1" connectable="0">
                    <mxGeometry relative="1" as="geometry">
                        <mxPoint as="offset"/>
                    </mxGeometry>
                </mxCell>
                <mxCell id="37" value="a" style="endArrow=none;html=1;edgeStyle=orthogonalEdgeStyle;labelBackgroundColor=#3399FF;strokeColor=#000000;fontSize=15;fontColor=#000000;entryX=-0.014;entryY=1.038;entryDx=0;entryDy=0;entryPerimeter=0;exitX=1;exitY=0.5;exitDx=0;exitDy=0;" parent="1" source="10" target="25" edge="1">
                    <mxGeometry relative="1" as="geometry">
                        <mxPoint x="200" y="180" as="sourcePoint"/>
                        <mxPoint x="370" y="200" as="targetPoint"/>
                        <Array as="points">
                            <mxPoint x="180" y="120"/>
                            <mxPoint x="540" y="120"/>
                            <mxPoint x="540" y="253"/>
                        </Array>
                    </mxGeometry>
                </mxCell>
                <mxCell id="38" value="1..*" style="edgeLabel;resizable=0;html=1;align=left;verticalAlign=bottom;labelBackgroundColor=#E6E6E6;labelBorderColor=none;fontSize=15;fontColor=#000000;" parent="37" connectable="0" vertex="1">
                    <mxGeometry x="-1" relative="1" as="geometry">
                        <mxPoint y="-1" as="offset"/>
                    </mxGeometry>
                </mxCell>
                <mxCell id="39" value="1" style="edgeLabel;resizable=0;html=1;align=right;verticalAlign=bottom;labelBackgroundColor=#E6E6E6;labelBorderColor=none;fontSize=15;fontColor=#000000;" parent="37" connectable="0" vertex="1">
                    <mxGeometry x="1" relative="1" as="geometry"/>
                </mxCell>
                <mxCell id="40" value="a" style="endArrow=none;html=1;edgeStyle=orthogonalEdgeStyle;labelBackgroundColor=#3399FF;strokeColor=#000000;fontSize=15;fontColor=#000000;exitX=0.998;exitY=0.02;exitDx=0;exitDy=0;exitPerimeter=0;entryX=-0.005;entryY=0.175;entryDx=0;entryDy=0;entryPerimeter=0;" parent="1" source="15" target="27" edge="1">
                    <mxGeometry x="0.2325" relative="1" as="geometry">
                        <mxPoint x="191.96000000000004" y="359.028" as="sourcePoint"/>
                        <mxPoint x="408.03999999999996" y="413.98800000000006" as="targetPoint"/>
                        <Array as="points">
                            <mxPoint x="440" y="240"/>
                            <mxPoint x="440" y="315"/>
                        </Array>
                        <mxPoint as="offset"/>
                    </mxGeometry>
                </mxCell>
                <mxCell id="41" value="1..*" style="edgeLabel;resizable=0;html=1;align=left;verticalAlign=bottom;labelBackgroundColor=#E6E6E6;labelBorderColor=none;fontSize=15;fontColor=#000000;" parent="40" connectable="0" vertex="1">
                    <mxGeometry x="-1" relative="1" as="geometry"/>
                </mxCell>
                <mxCell id="42" value="1" style="edgeLabel;resizable=0;html=1;align=right;verticalAlign=bottom;labelBackgroundColor=#E6E6E6;labelBorderColor=none;fontSize=15;fontColor=#000000;" parent="40" connectable="0" vertex="1">
                    <mxGeometry x="1" relative="1" as="geometry"/>
                </mxCell>
                <mxCell id="43" value="a" style="endArrow=none;html=1;edgeStyle=orthogonalEdgeStyle;labelBackgroundColor=#3399FF;strokeColor=#000000;fontSize=15;fontColor=#000000;exitX=1.004;exitY=0.327;exitDx=0;exitDy=0;entryX=0.004;entryY=0.646;entryDx=0;entryDy=0;entryPerimeter=0;exitPerimeter=0;" parent="1" source="18" target="27" edge="1">
                    <mxGeometry x="0.2168" relative="1" as="geometry">
                        <mxPoint x="170.00000000000003" y="430.028" as="sourcePoint"/>
                        <mxPoint x="386.08" y="484.98800000000006" as="targetPoint"/>
                        <Array as="points">
                            <mxPoint x="420" y="401"/>
                            <mxPoint x="420" y="415"/>
                        </Array>
                        <mxPoint as="offset"/>
                    </mxGeometry>
                </mxCell>
                <mxCell id="44" value="1..*" style="edgeLabel;resizable=0;html=1;align=left;verticalAlign=bottom;labelBackgroundColor=#E6E6E6;labelBorderColor=none;fontSize=15;fontColor=#000000;" parent="43" connectable="0" vertex="1">
                    <mxGeometry x="-1" relative="1" as="geometry"/>
                </mxCell>
                <mxCell id="45" value="1" style="edgeLabel;resizable=0;html=1;align=right;verticalAlign=bottom;labelBackgroundColor=#E6E6E6;labelBorderColor=none;fontSize=15;fontColor=#000000;" parent="43" connectable="0" vertex="1">
                    <mxGeometry x="1" relative="1" as="geometry">
                        <mxPoint x="-11" as="offset"/>
                    </mxGeometry>
                </mxCell>
                <mxCell id="46" value="a" style="endArrow=none;html=1;edgeStyle=orthogonalEdgeStyle;labelBackgroundColor=#3399FF;strokeColor=#000000;fontSize=15;fontColor=#000000;exitX=0.998;exitY=0.641;exitDx=0;exitDy=0;entryX=0;entryY=0.917;entryDx=0;entryDy=0;entryPerimeter=0;exitPerimeter=0;" parent="1" source="22" target="27" edge="1">
                    <mxGeometry x="0.2759" relative="1" as="geometry">
                        <mxPoint x="183.92000000000004" y="530.028" as="sourcePoint"/>
                        <mxPoint x="399.99999999999994" y="584.988" as="targetPoint"/>
                        <Array as="points">
                            <mxPoint x="380" y="590"/>
                            <mxPoint x="440" y="590"/>
                            <mxPoint x="440" y="500"/>
                            <mxPoint x="580" y="500"/>
                        </Array>
                        <mxPoint as="offset"/>
                    </mxGeometry>
                </mxCell>
                <mxCell id="47" value="0..*" style="edgeLabel;resizable=0;html=1;align=left;verticalAlign=bottom;labelBackgroundColor=#E6E6E6;labelBorderColor=none;fontSize=15;fontColor=#000000;" parent="46" connectable="0" vertex="1">
                    <mxGeometry x="-1" relative="1" as="geometry">
                        <mxPoint y="1" as="offset"/>
                    </mxGeometry>
                </mxCell>
                <mxCell id="48" value="1" style="edgeLabel;resizable=0;html=1;align=right;verticalAlign=bottom;labelBackgroundColor=#E6E6E6;labelBorderColor=none;fontSize=15;fontColor=#000000;" parent="46" connectable="0" vertex="1">
                    <mxGeometry x="1" relative="1" as="geometry">
                        <mxPoint x="-10" as="offset"/>
                    </mxGeometry>
                </mxCell>
                <mxCell id="49" value="Statut" style="swimlane;fontStyle=0;childLayout=stackLayout;horizontal=1;startSize=26;fillColor=#647687;horizontalStack=0;resizeParent=1;resizeParentMax=0;resizeLast=0;collapsible=1;marginBottom=0;fontSize=11;fontColor=#ffffff;strokeColor=#314354;" parent="1" vertex="1">
                    <mxGeometry x="500" y="580" width="140" height="150" as="geometry"/>
                </mxCell>
                <mxCell id="50" value="id_statut" style="text;strokeColor=none;fillColor=none;align=left;verticalAlign=top;spacingLeft=4;spacingRight=4;overflow=hidden;rotatable=0;points=[[0,0.5],[1,0.5]];portConstraint=eastwest;fontSize=11;fontColor=#000000;" parent="49" vertex="1">
                    <mxGeometry y="26" width="140" height="26" as="geometry"/>
                </mxCell>
                <mxCell id="51" value="in_prepapration" style="text;strokeColor=none;fillColor=none;align=left;verticalAlign=top;spacingLeft=4;spacingRight=4;overflow=hidden;rotatable=0;points=[[0,0.5],[1,0.5]];portConstraint=eastwest;fontSize=11;fontColor=#000000;" parent="49" vertex="1">
                    <mxGeometry y="52" width="140" height="26" as="geometry"/>
                </mxCell>
                <mxCell id="52" value="in_progress&#10;&#10;ended&#10;&#10;failure" style="text;strokeColor=none;fillColor=none;align=left;verticalAlign=top;spacingLeft=4;spacingRight=4;overflow=hidden;rotatable=0;points=[[0,0.5],[1,0.5]];portConstraint=eastwest;fontSize=11;fontColor=#000000;" parent="49" vertex="1">
                    <mxGeometry y="78" width="140" height="72" as="geometry"/>
                </mxCell>
                <mxCell id="53" value="a" style="endArrow=none;html=1;edgeStyle=orthogonalEdgeStyle;labelBackgroundColor=#3399FF;strokeColor=#000000;fontSize=15;fontColor=#000000;exitX=0.711;exitY=-0.004;exitDx=0;exitDy=0;entryX=0.571;entryY=1;entryDx=0;entryDy=0;entryPerimeter=0;exitPerimeter=0;" parent="1" source="49" target="27" edge="1">
                    <mxGeometry x="0.2759" relative="1" as="geometry">
                        <mxPoint x="460.04" y="636.266" as="sourcePoint"/>
                        <mxPoint x="660.3199999999999" y="520.004" as="targetPoint"/>
                        <Array as="points">
                            <mxPoint x="600" y="530"/>
                            <mxPoint x="660" y="530"/>
                        </Array>
                        <mxPoint as="offset"/>
                    </mxGeometry>
                </mxCell>
                <mxCell id="54" value="1" style="edgeLabel;resizable=0;html=1;align=left;verticalAlign=bottom;labelBackgroundColor=#E6E6E6;labelBorderColor=none;fontSize=15;fontColor=#000000;" parent="53" connectable="0" vertex="1">
                    <mxGeometry x="-1" relative="1" as="geometry">
                        <mxPoint y="1" as="offset"/>
                    </mxGeometry>
                </mxCell>
                <mxCell id="55" value="1..*" style="edgeLabel;resizable=0;html=1;align=right;verticalAlign=bottom;labelBackgroundColor=#E6E6E6;labelBorderColor=none;fontSize=15;fontColor=#000000;" parent="53" connectable="0" vertex="1">
                    <mxGeometry x="1" relative="1" as="geometry">
                        <mxPoint x="30" y="30" as="offset"/>
                    </mxGeometry>
                </mxCell>
            </root>
        </mxGraphModel>
    </diagram>
</mxfile>